<svg xmlns="http://www.w3.org/2000/svg" width="1254" height="836" viewBox="0 0 1254 836">
<g>
<path d="M 371.37 524.72 C368.07,528.02 365.85,527.57 360.10,522.40 L 354.99 517.80 L 347.24 520.65 C340.08,523.29 338.44,523.50 325.50,523.48 C312.82,523.45 310.81,523.20 304.19,520.77 C291.86,516.23 286.20,512.34 273.40,499.57 C261.24,487.44 255.03,478.80 255.01,473.97 C255.01,473.91 255.01,473.86 255.01,473.80 C255.01,473.54 255.01,473.30 255.02,473.07 C255.17,470.53 257.16,468.09 280.47,438.96 C292.58,423.82 304.71,408.63 307.41,405.21 C310.78,400.94 313.00,399.00 314.53,399.00 C315.78,399.00 319.36,401.29 322.73,404.25 C326.01,407.14 336.45,416.19 345.91,424.36 C362.60,438.78 363.16,439.16 365.05,437.45 C366.12,436.48 376.98,423.05 389.18,407.59 C401.37,392.14 412.02,378.70 412.85,377.73 C414.21,376.12 414.06,375.66 411.17,372.68 C409.43,370.88 408.00,368.74 408.00,367.93 C408.00,366.06 440.56,355.12 441.86,356.55 C443.08,357.90 440.10,390.21 438.62,391.76 C437.66,392.76 436.44,392.40 432.59,389.96 C429.94,388.27 427.67,387.03 427.55,387.20 C423.28,393.17 394.04,430.94 380.24,448.31 C370.38,460.73 366.39,465.04 365.02,464.81 C363.99,464.64 353.55,456.10 341.82,445.84 C318.41,425.35 315.08,422.58 314.51,423.16 C314.29,423.37 305.77,434.55 295.56,448.00 C282.51,465.20 277.00,473.23 277.00,475.06 C277.00,480.83 288.64,493.79 299.31,499.89 C309.01,505.44 321.60,507.39 331.56,504.88 C334.00,504.27 336.00,503.40 336.00,502.97 C336.00,502.53 333.85,500.44 331.23,498.34 C320.11,489.40 308.02,478.68 306.56,476.46 C302.60,470.41 306.54,463.00 313.70,463.00 C318.91,463.01 321.64,464.87 343.48,483.29 C353.94,492.12 363.18,499.91 364.01,500.61 C365.31,501.70 366.55,500.60 372.48,493.19 C385.60,476.79 410.02,448.19 413.54,445.10 C420.02,439.41 428.00,442.17 428.00,450.09 C428.00,454.15 427.59,454.79 414.99,470.50 C409.70,477.10 398.23,491.49 389.51,502.47 C380.78,513.46 372.62,523.47 371.37,524.72 Z" fill="rgb(18,159,130)" data-index="0" style="opacity: 1;"></path>

<path d="M 357.21 427.71 L 353.00 423.42 L 353.00 366.27 C353.00,334.84 353.34,308.98 353.75,308.81 C354.16,308.64 363.61,308.63 374.75,308.79 L 395.00 309.08 L 395.00 350.29 L 395.00 391.50 L 378.93 411.75 C370.09,422.89 362.54,432.00 362.14,432.00 C361.74,432.00 359.52,430.07 357.21,427.71 ZM 259.00 410.00 L 259.00 364.00 L 300.00 364.00 L 300.00 405.67 L 287.75 421.17 C281.01,429.70 272.12,441.02 268.00,446.33 C263.88,451.64 260.16,455.99 259.75,455.99 C259.34,456.00 259.00,435.30 259.00,410.00 ZM 339.97 412.71 C318.73,392.68 315.26,390.65 309.73,395.00 C308.33,396.10 306.91,397.00 306.58,397.00 C306.24,397.00 306.09,384.29 306.23,368.75 L 306.50 340.50 L 326.75 340.23 L 347.00 339.96 L 347.00 378.98 C347.00,400.44 346.66,417.98 346.25,417.96 C345.84,417.94 343.01,415.58 339.97,412.71 Z" fill="rgb(220,170,69)" data-index="2" style="opacity: 1;"></path>
<path d="M 609.80 488.61 C603.03,485.82 598.51,482.25 594.72,476.69 C591.52,471.99 591.47,472.06 600.89,469.44 L 607.28 467.66 L 609.25 470.36 C613.81,476.63 623.69,478.73 631.03,474.99 C636.26,472.32 639.00,466.95 639.00,459.35 L 639.00 453.63 L 636.25 456.26 C629.67,462.56 617.78,464.11 608.08,459.94 C589.82,452.08 585.17,423.00 599.61,407.01 C605.27,400.74 610.08,398.65 619.00,398.57 C628.60,398.48 631.16,399.24 636.03,403.64 L 640.00 407.23 L 640.00 403.12 L 640.00 399.00 L 648.05 399.00 L 656.10 399.00 L 655.80 433.75 L 655.50 468.50 L 652.68 474.24 C647.40,485.00 636.80,491.02 623.21,490.98 C617.45,490.96 614.06,490.36 609.80,488.61 ZM 632.79 444.34 C636.74,441.45 639.00,436.31 639.00,430.22 C639.00,423.98 637.27,419.43 633.60,416.05 C629.81,412.56 619.95,411.98 615.18,414.97 C605.43,421.09 606.10,440.23 616.26,445.41 C620.54,447.60 629.11,447.04 632.79,444.34 ZM 509.18 464.99 C503.13,463.71 494.03,459.39 490.66,456.19 C487.17,452.89 483.90,446.75 482.97,441.75 L 482.27 438.00 L 490.88 438.00 L 499.50 438.01 L 501.50 441.72 C502.60,443.77 504.97,446.43 506.77,447.64 C518.18,455.29 537.22,447.95 533.44,437.35 C531.96,433.20 528.34,431.21 516.36,428.01 C510.24,426.37 503.22,424.16 500.76,423.11 C494.76,420.54 489.08,415.39 486.86,410.51 C484.46,405.21 484.47,395.77 486.88,390.46 C489.50,384.69 497.02,378.44 503.84,376.37 C511.18,374.13 523.81,374.09 531.09,376.28 C540.94,379.24 550.00,389.56 550.00,397.82 L 550.00 401.00 L 541.51 401.00 L 533.03 401.00 L 531.63 397.67 C529.24,391.95 525.74,390.00 517.82,390.00 C507.67,390.00 503.00,393.00 503.00,399.50 C503.00,405.86 507.45,408.68 523.42,412.46 C534.90,415.17 540.92,417.75 545.34,421.86 C555.29,431.10 554.69,447.72 544.07,457.32 C536.74,463.94 520.79,467.45 509.18,464.99 ZM 753.56 464.51 C742.14,460.44 736.54,449.72 740.47,439.44 C743.76,430.84 751.82,427.08 768.75,426.26 L 780.00 425.72 L 779.97 421.61 C779.92,414.95 776.38,412.00 768.47,412.00 C764.46,412.00 763.30,412.50 760.26,415.54 C756.76,419.04 756.64,419.08 749.11,418.79 L 741.50 418.50 L 741.72 415.52 C742.05,411.01 746.87,405.06 753.00,401.60 C758.23,398.65 759.04,398.50 769.50,398.51 C781.61,398.51 785.79,399.90 791.14,405.66 C797.33,412.34 797.50,413.25 797.50,440.00 L 797.50 464.50 L 789.50 464.50 L 781.50 464.50 L 781.19 461.25 L 780.87 458.01 L 777.13 461.02 C770.85,466.06 761.71,467.41 753.56,464.51 ZM 774.03 451.48 C777.63,449.62 780.00,445.28 780.00,440.55 L 780.00 437.00 L 771.97 437.00 C759.17,437.00 754.56,440.13 756.43,447.56 C757.63,452.35 767.92,454.64 774.03,451.48 ZM 874.11 464.92 C862.17,462.57 849.80,453.45 844.57,443.15 C836.88,427.96 837.17,408.62 845.30,394.75 C848.80,388.78 857.04,381.33 863.33,378.45 C871.30,374.80 882.16,373.41 891.15,374.87 C916.74,379.06 931.19,399.59 928.08,427.35 C925.13,453.69 901.31,470.26 874.11,464.92 ZM 897.23 446.17 C906.33,440.53 909.95,433.25 909.98,420.50 C910.00,412.62 909.64,410.74 907.10,405.38 C903.80,398.40 899.40,394.53 892.39,392.42 C882.68,389.49 871.37,391.93 865.25,398.25 C859.78,403.90 857.51,410.31 857.50,420.07 C857.50,427.64 857.86,429.34 860.50,434.48 C863.78,440.85 868.63,445.36 874.63,447.60 C880.15,449.66 892.89,448.85 897.23,446.17 ZM 1030.03 463.96 C1015.57,458.76 1008.09,446.01 1009.22,428.47 C1010.01,416.20 1015.60,406.73 1025.17,401.48 C1030.05,398.80 1031.34,398.56 1040.50,398.54 C1049.06,398.53 1051.15,398.87 1055.00,400.88 C1065.50,406.34 1070.02,413.90 1070.78,427.24 L 1071.28 436.00 L 1048.64 436.00 L 1026.00 436.00 L 1026.00 438.55 C1026.00,445.42 1033.00,450.93 1041.79,450.98 C1046.28,451.00 1053.31,448.05 1054.71,445.56 C1055.39,444.33 1056.73,444.27 1063.01,445.13 C1067.13,445.70 1070.67,446.34 1070.87,446.54 C1071.08,446.74 1070.03,448.97 1068.56,451.49 C1061.46,463.61 1044.40,469.13 1030.03,463.96 ZM 1055.00 423.97 C1055.00,421.47 1052.01,416.15 1049.49,414.17 C1047.40,412.53 1045.36,412.00 1041.12,412.00 C1034.54,412.01 1029.89,414.37 1027.55,418.91 C1024.42,424.95 1024.53,425.00 1040.50,425.00 C1049.80,425.00 1055.00,424.63 1055.00,423.97 ZM 563.70 464.37 C563.32,463.98 563.00,449.12 563.00,431.33 L 563.00 399.00 L 572.01 399.00 L 581.03 399.00 L 580.76 431.75 L 580.50 464.50 L 572.45 464.79 C568.03,464.95 564.09,464.76 563.70,464.37 ZM 669.67 464.33 C669.30,463.97 669.00,449.12 669.00,431.33 L 669.00 399.00 L 677.50 399.00 L 686.00 399.00 L 686.00 402.49 L 686.00 405.99 L 690.48 402.57 C700.50,394.92 719.18,397.21 725.70,406.88 C729.49,412.50 729.99,416.52 729.99,441.29 L 730.00 465.08 L 721.75 464.79 L 713.50 464.50 L 713.00 443.50 C712.59,426.18 712.20,421.95 710.78,419.36 C706.86,412.20 693.09,412.36 688.33,419.62 C686.73,422.05 686.46,425.14 686.15,443.70 L 685.80 465.00 L 678.07 465.00 C673.81,465.00 670.03,464.70 669.67,464.33 ZM 809.70 464.37 C809.32,463.98 809.00,443.27 809.00,418.33 L 809.00 373.00 L 818.01 373.00 L 827.02 373.00 L 826.76 418.75 L 826.50 464.50 L 818.45 464.79 C814.03,464.95 810.09,464.76 809.70,464.37 ZM 939.67 464.33 C939.30,463.97 939.00,449.12 939.00,431.33 L 939.00 399.00 L 947.50 399.00 L 956.00 399.00 L 956.00 402.60 L 956.00 406.21 L 959.52 403.12 C963.97,399.21 966.58,398.50 976.58,398.50 C983.82,398.50 985.17,398.81 989.52,401.51 C992.98,403.64 995.13,405.96 996.95,409.48 C999.48,414.41 999.50,414.59 999.50,439.47 L 999.50 464.50 L 991.00 464.50 L 982.50 464.50 L 982.00 442.27 L 981.50 420.04 L 978.84 417.38 C975.33,413.87 968.04,413.10 963.00,415.69 C956.70,418.95 956.00,421.82 956.00,444.75 L 956.00 465.00 L 948.17 465.00 C943.86,465.00 940.03,464.70 939.67,464.33 ZM 569.02 390.88 C562.93,388.45 560.57,382.67 563.42,377.15 C565.36,373.39 567.77,372.00 572.30,372.00 C582.14,372.00 585.32,384.79 576.77,390.00 C573.12,392.23 572.55,392.29 569.02,390.88 Z" fill="rgb(250,250,246)" data-index="3" style="opacity: 1;"></path>
</g>
</svg>